<?xml version="1.0" encoding="iso-8859-1"?>
<!-- Uploaded to: SVG Repo, www.svgrepo.com, Generator: SVG Repo Mixer Tools -->
<svg height="800px" width="800px" version="1.1" id="Layer_1" xmlns="http://www.w3.org/2000/svg" xmlns:xlink="http://www.w3.org/1999/xlink" 
	 viewBox="0 0 502.009 502.009" xml:space="preserve">
<g>
	<g>
		<path style="fill: #fff;" d="M29.32,119.164l111.262-64.163c25.746-14.847,57.91,3.746,57.893,33.466l-0.019,32.431
			c65.191,16.436,125.322,48.869,175.099,94.672c57.273,52.702,97.875,120.607,117.415,196.374
			c4.447,17.243-5.926,34.827-23.169,39.273c-2.946,0.76-5.901,1.087-8.799,1.022c-14.068-0.319-26.787-9.893-30.474-24.191
			c-29.654-114.985-118.05-206.018-230.109-240.239l-0.017,29.109c-0.017,29.721-32.202,48.277-57.931,33.4L29.282,186.03
			C3.556,171.155,3.577,134.01,29.32,119.164z"/>
	</g>
</g>
</svg>